{"title":"The Russian Front.Stalingrad to Berlin","uid":8929527,"size":586547033,"categoryP":"video","categoryS":"movies","magnet":"?xt=urn:btih:47769761f688a7020b8b4f9fd885ebd36fc251ca&amp;dn=The+Russian+Front.Stalingrad+to+Berlin&amp;tr=udp%3A%2F%2Ftracker.openbittorrent.com%3A80&amp;tr=udp%3A%2F%2Fopen.demonii.com%3A1337&amp;tr=udp%3A%2F%2Ftracker.coppersurfer.tk%3A6969&amp;tr=udp%3A%2F%2Fexodus.desync.com%3A6969","seeders":3,"leechers":0,"uploader":null,"files":5,"time":1379445703,"description":"The Titanic struggle fought between the armies of Hitler and Stalin from\n1941 through to 1945 is without parallel in the history of warfare.\nThe most men, tanks  .artillery and aircraft ever assembled ground out\na terrifying war of attrition  which descended int merciless barbarism\nas the stakes grew even higher.\n\nComplete name        :The Russian Front.Stalingrad to Berlin_mp4_dvd_rip\nFormat                                   : MPEG-4\nFormat profile                           : Base Media\nCodec ID                                 : isom\nFile size                                : 557 MiB\nDuration                                 : 58mn 33s\nOverall bit rate                         : 1 331 Kbps\nMovie name                               : THE_RUSSIAN_FRONT\nGenre                                    : WAR_DOCUMENTARY\nWriting application                      : Lavf54.46.100\n\nID                                       : 1\nFormat                                   : MPEG-4 Visual\nFormat settings, BVOP                    : No\nFormat settings, QPel                    : No\nFormat settings, GMC                     : No warppoints\nFormat settings, Matrix                  : Default (H.263)\nCodec ID                                 : 20\nDuration                                 : 58mn 33s\nBit rate mode                            : Constant\nBit rate                                 : 1 199 Kbps\nWidth                                    : 720 pixels\nHeight                                   : 540 pixels\nDisplay aspect ratio                     : 4:3\nFrame rate mode                          : Constant\nFrame rate                               : 23.976 fps\nColor space                              : YUV\nChroma subsampling                       : 4:2:0\nBit depth                                : 8 bits\nScan type                                : Progressive\nCompression mode                         : Lossy\nBits/(Pixel*Frame)                       : 0.129\nStream size                              : 502 MiB (90%)\nWriting library                          : Lavc54.79.100\n\nID                                       : 2\nFormat                                   : AAC\nFormat/Info                              : Advanced Audio Codec\nFormat profile                           : LC\nCodec ID                                 : 40\nDuration                                 : 58mn 33s\nBit rate mode                            : Constant\nBit rate                                 : 128 Kbps\nChannel(s)                               : 2 channels\nChannel positions                        : Front: L R\nSampling rate                            : 44.1 KHz\nCompression mode                         : Lossy\nStream size                              : 53.5 MiB (10%)","torrent":{"xt":"urn:btih:47769761f688a7020b8b4f9fd885ebd36fc251ca","amp;dn":"The+Russian+Front.Stalingrad+to+Berlin","amp;tr":["udp%3A%2F%2Ftracker.openbittorrent.com%3A80","udp%3A%2F%2Fopen.demonii.com%3A1337","udp%3A%2F%2Ftracker.coppersurfer.tk%3A6969","udp%3A%2F%2Fexodus.desync.com%3A6969"],"infoHash":"47769761f688a7020b8b4f9fd885ebd36fc251ca","infoHashBuffer":{"type":"Buffer","data":[71,118,151,97,246,136,167,2,11,139,79,159,216,133,235,211,111,194,81,202]},"announce":[],"urlList":[]}}